<?xml version="1.0" encoding="UTF-8" standalone="no"?>
<svg
   xmlns:dc="http://purl.org/dc/elements/1.1/"
   xmlns:cc="http://creativecommons.org/ns#"
   xmlns:rdf="http://www.w3.org/1999/02/22-rdf-syntax-ns#"
   xmlns:svg="http://www.w3.org/2000/svg"
   xmlns="http://www.w3.org/2000/svg"
   xmlns:xlink="http://www.w3.org/1999/xlink"
   xmlns:sodipodi="http://sodipodi.sourceforge.net/DTD/sodipodi-0.dtd"
   xmlns:inkscape="http://www.inkscape.org/namespaces/inkscape"
   width="240mm"
   height="110mm"
   viewBox="0 0 240 110"
   version="1.1"
   id="svg149"
   inkscape:version="1.0 (4035a4f, 2020-05-01)"
   sodipodi:docname="woodland.svg">
  <defs
     id="defs143">
    <inkscape:path-effect
       simplify_just_coalesce="false"
       simplify_individual_paths="false"
       helper_size="0"
       smooth_angles="360"
       threshold="0.000515464"
       steps="1"
       lpeversion="1"
       is_visible="true"
       id="path-effect957"
       effect="simplify" />
    <linearGradient
       inkscape:collect="always"
       id="linearGradient1139">
      <stop
         style="stop-color:#484f2d;stop-opacity:1;"
         offset="0"
         id="stop1135" />
      <stop
         style="stop-color:#8e8e4e;stop-opacity:0.97580647"
         offset="1"
         id="stop1137" />
    </linearGradient>
    <inkscape:path-effect
       effect="simplify"
       id="path-effect1133"
       is_visible="true"
       lpeversion="1"
       steps="1"
       threshold="0.000515464"
       smooth_angles="360"
       helper_size="0"
       simplify_individual_paths="false"
       simplify_just_coalesce="false" />
    <inkscape:path-effect
       effect="simplify"
       id="path-effect1129"
       is_visible="true"
       lpeversion="1"
       steps="1"
       threshold="0.000515464"
       smooth_angles="360"
       helper_size="0"
       simplify_individual_paths="false"
       simplify_just_coalesce="false" />
    <inkscape:path-effect
       effect="simplify"
       id="path-effect1060"
       is_visible="true"
       lpeversion="1"
       steps="1"
       threshold="0.000515464"
       smooth_angles="360"
       helper_size="0"
       simplify_individual_paths="false"
       simplify_just_coalesce="false" />
    <inkscape:path-effect
       effect="simplify"
       id="path-effect185"
       is_visible="true"
       lpeversion="1"
       steps="1"
       threshold="0.000515464"
       smooth_angles="360"
       helper_size="0"
       simplify_individual_paths="false"
       simplify_just_coalesce="false" />
    <inkscape:path-effect
       effect="simplify"
       id="path-effect181"
       is_visible="true"
       lpeversion="1"
       steps="1"
       threshold="0.000515464"
       smooth_angles="360"
       helper_size="0"
       simplify_individual_paths="false"
       simplify_just_coalesce="false" />
    <inkscape:path-effect
       effect="simplify"
       id="path-effect177"
       is_visible="true"
       lpeversion="1"
       steps="1"
       threshold="0.000515464"
       smooth_angles="360"
       helper_size="0"
       simplify_individual_paths="false"
       simplify_just_coalesce="false" />
    <inkscape:path-effect
       effect="simplify"
       id="path-effect173"
       is_visible="true"
       lpeversion="1"
       steps="1"
       threshold="0.000515464"
       smooth_angles="360"
       helper_size="0"
       simplify_individual_paths="false"
       simplify_just_coalesce="false" />
    <inkscape:path-effect
       effect="simplify"
       id="path-effect161"
       is_visible="true"
       lpeversion="1"
       steps="1"
       threshold="0.000515464"
       smooth_angles="360"
       helper_size="0"
       simplify_individual_paths="false"
       simplify_just_coalesce="false" />
    <inkscape:path-effect
       effect="simplify"
       id="path-effect157"
       is_visible="true"
       lpeversion="1"
       steps="1"
       threshold="0.000515464"
       smooth_angles="360"
       helper_size="0"
       simplify_individual_paths="false"
       simplify_just_coalesce="false" />
    <inkscape:path-effect
       effect="simplify"
       id="path-effect153"
       is_visible="true"
       lpeversion="1"
       steps="1"
       threshold="0.000515464"
       smooth_angles="360"
       helper_size="0"
       simplify_individual_paths="false"
       simplify_just_coalesce="false" />
    <linearGradient
       inkscape:collect="always"
       xlink:href="#linearGradient1139"
       id="linearGradient1143"
       gradientUnits="userSpaceOnUse"
       x1="201.50786"
       y1="11.496505"
       x2="201.50786"
       y2="108.26987"
       gradientTransform="matrix(1.3560068,0,0,1.0154382,-145.67901,-12.22264)" />
    <clipPath
       clipPathUnits="userSpaceOnUse"
       id="clipPath1204">
      <path
         id="path1206"
         style="fill:#c83737;fill-opacity:1;stroke:none;stroke-width:0.262107"
         d="M 100.68913,109.2309 H 277.99522 V 210.17888 H 100.68913 Z" />
    </clipPath>
    <clipPath
       clipPathUnits="userSpaceOnUse"
       id="clipPath1559">
      <path
         d="M 0.07278738,0.08345572 H 201.84909 V 122.97787 H 0.07278738 Z"
         style="fill:#c83737;fill-opacity:1;stroke:none;stroke-width:0.308509"
         id="path1561" />
    </clipPath>
    <clipPath
       clipPathUnits="userSpaceOnUse"
       id="clipPath1563">
      <path
         d="m 101.01378,109.89583 h 177.3061 v 110.58954 h -177.3061 z"
         style="fill:#c83737;fill-opacity:1;stroke:none;stroke-width:0.274338"
         id="path1565" />
    </clipPath>
    <clipPath
       clipPathUnits="userSpaceOnUse"
       id="clipPath1575">
      <path
         d="m 101.01378,109.89583 h 177.3061 v 110.58954 h -177.3061 z"
         style="fill:#c83737;fill-opacity:1;stroke:none;stroke-width:0.274338"
         id="path1577" />
    </clipPath>
    <clipPath
       clipPathUnits="userSpaceOnUse"
       id="clipPath1583">
      <path
         d="m 101.01378,109.89583 h 177.3061 v 110.58954 h -177.3061 z"
         style="fill:#c83737;fill-opacity:1;stroke:none;stroke-width:0.274338"
         id="path1585" />
    </clipPath>
    <clipPath
       id="clipPath1559-9"
       clipPathUnits="userSpaceOnUse">
      <path
         id="path1561-6"
         style="fill:#c83737;fill-opacity:1;stroke:none;stroke-width:0.308509"
         d="M 0.07278738,0.08345572 H 201.84909 V 122.97787 H 0.07278738 Z" />
    </clipPath>
  </defs>
  <sodipodi:namedview
     inkscape:snap-bbox="true"
     inkscape:guide-bbox="true"
     showguides="true"
     id="base"
     pagecolor="#ffffff"
     bordercolor="#666666"
     borderopacity="1.0"
     inkscape:pageopacity="0.0"
     inkscape:pageshadow="2"
     inkscape:zoom="0.64819665"
     inkscape:cx="479.58708"
     inkscape:cy="302.90681"
     inkscape:document-units="mm"
     inkscape:current-layer="layer1"
     inkscape:document-rotation="0"
     showgrid="false"
     inkscape:snap-global="true"
     inkscape:window-width="1414"
     inkscape:window-height="855"
     inkscape:window-x="0"
     inkscape:window-y="23"
     inkscape:window-maximized="0" />
  <metadata
     id="metadata146">
    <rdf:RDF>
      <cc:Work
         rdf:about="">
        <dc:format>image/svg+xml</dc:format>
        <dc:type
           rdf:resource="http://purl.org/dc/dcmitype/StillImage" />
        <dc:title></dc:title>
      </cc:Work>
    </rdf:RDF>
  </metadata>
  <g
     inkscape:label="Layer 1"
     inkscape:groupmode="layer"
     id="layer1">
    <path
       d="M -0.50173823,-0.68264566 V 95.66452 H 242.30754 V -0.68264566 Z"
       style="fill:url(#linearGradient1143);fill-opacity:1;stroke-width:0.495592"
       clip-path="none"
       id="rect169" />
    <path
       id="rect167"
       style="fill:#668000;fill-opacity:0.502024;stroke-width:0.12733"
       d="m 149.51878,18.298189 c -1.5933,0.002 -3.18662,0.0051 -4.77984,0.01168 -3.18648,0.01259 -6.37294,0.03514 -9.55927,0.07027 -3.4889,0.07007 -6.97921,0.153016 -10.4707,0.231895 -3.49149,0.0789 -6.98403,0.153596 -10.4778,0.207363 -1.7469,0.02691 -3.49415,0.04854 -5.24156,0.06276 -1.74741,0.01422 -3.495,0.02102 -5.24289,0.01838 -1.7479,-0.003 -3.49631,-0.01482 -5.244661,-0.03859 -1.748353,-0.02376 -3.496789,-0.0592 -5.245556,-0.108347 -4.86825,-0.02153 -9.742581,0.01573 -14.609658,0.004 -2.433539,-0.0061 -4.86521,-0.02346 -7.293298,-0.06702 -1.214045,-0.02183 -2.427512,-0.05006 -3.639562,-0.08631 -3.814175,-0.442547 -18.538917,-0.318989 -18.538917,2.584596 l 8.559055,1.323268 17.118109,2.952011 c 10.256014,-0.03696 12.038754,1.145069 21.086707,1.152085 4.883951,0.05707 9.766041,0.131521 14.646471,0.21894 4.88043,0.08743 9.75898,0.187754 14.63626,0.296183 9.75459,0.216836 19.50328,0.466207 29.24772,0.710897 3.38016,0.145685 6.76504,0.272798 10.15358,0.383623 3.38853,0.110815 6.78081,0.205423 10.17621,0.28614 3.39538,0.08073 6.79367,0.147523 10.19437,0.202895 3.40072,0.05534 7.26441,-0.528972 10.66892,-0.494132 3.40452,0.03483 6.34987,0.6887 9.75667,0.707587 5.76196,-0.0662 12.12481,-2.229141 16.64119,-2.286279 l 4.41921,-1.38387 c 2.60809,-0.653779 6.5674,-0.108652 5.06368,-3.43474 -1.31062,-0.03331 -6.25007,-1.39181 -7.52599,-1.707469 -1.58377,-0.391817 -0.87021,-2.207715 -2.91648,-2.225587 -2.04625,-0.01787 -7.4044,0.775094 -9.43902,0.754481 -3.18696,-0.003 -6.37408,-0.01361 -9.56103,-0.02955 -3.18696,-0.01595 -6.37412,-0.03706 -9.56103,-0.06103 -6.37383,-0.04793 -12.74759,-0.106834 -19.12118,-0.156174 -6.37358,-0.04935 -12.74666,-0.08926 -19.11987,-0.09911 -1.59328,-0.002 -3.18655,-0.003 -4.77984,-0.002 z"
       sodipodi:nodetypes="sscssscscsscccccsscssssccccsscssssss"
       clip-path="none" />
    <path
       d="m 80.320216,-0.68264566 c -0.03322,0.75744744 -0.06967,2.22109696 -0.100264,2.74207746 -0.5482,9.3340692 -0.991264,27.0497032 -0.734789,37.6751142 0.256459,10.625412 1.266627,26.416401 1.266627,26.416401 l 23.31998,-1.767451 c 0,0 -0.77296,-26.227427 -0.88106,-34.092991 -0.13799,-10.040214 -2.11594,-30.78742145 -2.13365,-30.97315066 z"
       style="fill:#57422d;fill-opacity:1;stroke:none;stroke-width:0.200983px;stroke-linecap:butt;stroke-linejoin:miter;stroke-opacity:1"
       clip-path="none"
       id="path1056" />
    <path
       d="m 242.30754,40.291746 c -2.54889,-0.108213 -5.09925,-0.122173 -7.6482,-0.245073 -0.85129,-0.02081 -1.70385,-0.0344 -2.55457,-0.03022 -3.00522,-0.04473 -6.00407,0.606459 -9.00928,0.273403 -1.4287,0.02084 -2.86205,0.03805 -4.28183,-0.202575 -0.7224,0.02439 -2.02006,0.276179 -1.97914,1.722122 1.31129,0.768255 2.58346,1.698348 3.86915,2.572558 1.23665,-0.07949 2.39757,0.869237 3.63908,0.722469 3.87951,0.210509 7.75359,0.626739 11.62197,1.134702 2.1121,0.199267 4.2275,0.246944 6.34282,0.263016 z"
       style="fill:#668000;fill-opacity:0.502024;stroke-width:0.0388354"
       clip-path="none"
       id="rect167-4-7" />
    <path
       d="M 199.83605,-0.68264566 C 198.46303,7.8476085 195.2744,27.816049 194.97056,32.466412 c -0.6885,10.53837 -1.5064,17.05779 -1.18428,29.054122 0.32209,11.996326 1.59066,29.825232 1.59066,29.825232 l 33.73443,-1.996002 c 0,0 -5.6627,-31.75745 -5.0297,-40.62024 0.61054,-8.54814 -2.95272,-40.5276875 -2.95272,-40.5276875 l -1.00991,-8.88448216 z"
       style="fill:#57422d;fill-opacity:1;stroke:none;stroke-width:0.224144px;stroke-linecap:butt;stroke-linejoin:miter;stroke-opacity:1"
       clip-path="none"
       id="path1054" />
    <path
       sodipodi:nodetypes="cscssssssccccccsscssscssccccccccccccsscssscsscscccccssssssccc"
       d="m 242.00723,58.55605 c -1.23167,-0.138553 -7.80791,-0.880892 -10.38538,-1.126675 -5.05346,-0.481886 -12.56518,-1.850355 -20.17303,-2.677858 -1.64976,-0.004 -3.29347,-0.07169 -4.93379,-0.181326 -1.64031,-0.109617 -3.27707,-0.261435 -4.912,-0.433482 -1.63494,-0.172056 -3.26818,-0.364512 -4.90182,-0.555782 -1.63362,-0.191267 -3.26738,-0.381415 -4.90376,-0.548698 -1.63639,-0.167281 -3.27557,-0.311668 -4.91878,-0.41176 -0.8216,-0.05006 -1.64429,-0.08909 -2.46834,-0.114274 -0.82407,-0.02518 -1.64956,-0.03624 -2.47658,-0.03116 -0.82705,0.0051 -1.65528,0.02717 -2.4858,0.06799 -0.83053,0.04092 -1.6629,0.100725 -2.4974,0.18274 -4.65872,0.0788 -9.32176,0.128066 -13.98424,0.184159 -4.6625,0.05605 -9.32467,0.118843 -13.98279,0.224298 -2.32906,0.0527 -4.65721,0.116464 -6.98366,0.195018 -2.32643,0.07859 -4.65116,0.172279 -6.97395,0.285683 -2.32279,0.113413 -4.64322,0.246481 -6.96137,0.403733 -2.31812,0.15724 -4.63389,0.338121 -6.94634,0.548227 -4.36282,0.358417 -8.73187,0.685787 -13.10608,0.976042 -4.37421,0.290263 -8.753524,0.543418 -13.138044,0.754577 -4.384523,0.21115 -8.773831,0.380368 -13.167593,0.501479 -4.393763,0.121111 -8.792301,0.194727 -13.194235,0.214851 -3.742977,0.0857 -7.482412,0.225238 -11.220426,0.378236 -3.738019,0.152995 -7.474357,0.319068 -11.211711,0.457562 -3.737353,0.138487 -7.475552,0.249168 -11.216552,0.291349 -1.870506,0.02112 -3.741634,0.02516 -5.613848,0.0071 -1.872223,-0.01838 -3.745669,-0.05909 -5.620143,-0.127022 -1.183708,0.06184 -2.36653,0.106783 -3.548009,0.133632 -1.181511,0.02691 -2.361348,0.03555 -3.538807,0.0255 -0.652547,-0.0051 -16.39361014,0.563601 -17.04448303,0.546339 v 29.660429 c 0.65087289,0.01726 16.39193603,-0.551924 17.04448303,-0.546339 1.177459,0.01015 2.357296,5.93e-4 3.538807,-0.02597 1.1815,-0.02691 2.364312,-0.07187 3.548009,-0.133632 1.874485,0.06793 3.74792,0.108693 5.620143,0.127022 1.872224,0.01837 3.743352,0.01424 5.613848,-0.0071 3.741,-0.04224 7.479188,-0.152853 11.216552,-0.291349 3.737354,-0.138485 7.473683,-0.304578 11.211711,-0.457564 3.738014,-0.152986 7.477439,-0.292561 11.220426,-0.378234 4.401923,-0.0201 8.800472,-0.09373 13.194235,-0.214851 4.393762,-0.121111 8.78307,-0.289858 13.167593,-0.501007 4.38452,-0.21116 8.763854,-0.464799 13.138044,-0.75505 4.37421,-0.290264 8.74326,-0.61714 13.10608,-0.975571 2.31245,-0.210093 4.62822,-0.391447 6.94634,-0.548697 2.31815,-0.157251 4.63858,-0.29033 6.96137,-0.403733 2.32279,-0.113406 4.64752,-0.20712 6.97395,-0.285683 2.32645,-0.07859 4.6546,-0.141824 6.98366,-0.194547 4.65812,-0.105454 9.32029,-0.168677 13.98279,-0.224769 4.66248,-0.05605 9.32552,-0.104929 13.98424,-0.183685 0.8345,-0.08195 1.66687,-0.142355 2.4974,-0.183216 0.83052,-0.04082 1.65875,-0.06292 2.4858,-0.06799 0.82702,-0.0051 1.65251,0.0064 2.47658,0.03163 0.82405,0.02518 1.64674,0.06374 2.46834,0.113802 1.64321,0.100122 3.28239,0.24495 4.91878,0.412231 1.63638,0.167284 3.27014,0.357431 4.90376,0.548701 1.63364,0.191267 3.26688,0.383724 4.90182,0.55578 1.63493,0.172046 3.27169,0.323393 4.912,0.43301 1.64032,0.109617 3.28403,0.177356 4.93379,0.181326 0.18339,4.47e-4 0.36768,-0.0089 0.55122,-0.0099 l 30.00719,2.046996 z"
       style="fill:#56641c;fill-opacity:1;stroke-width:0.223127"
       clip-path="none"
       id="rect165" />
    <path
       sodipodi:nodetypes="ccccsscccscscsssssccsscsasssscccssccc"
       id="path222"
       style="fill:#92ab2f;fill-opacity:0.314516;stroke-width:0.240033"
       d="m 17.390927,67.776318 c -1.559796,0.09992 -3.115666,0.232342 -4.674757,0.338455 l 1.110844,15.476111 c 0.935343,0.02254 1.870729,0.05321 2.805828,0.05686 1.510271,0.0061 3.020668,-0.01158 4.530447,-0.04732 3.019579,-0.07148 6.038315,-0.216887 9.056892,-0.396893 6.037153,-0.360004 12.073314,-0.8596 18.113997,-1.190663 2.178412,-7.21e-4 4.353593,-0.04092 6.526287,-0.113983 2.172683,-0.07311 4.343095,-0.179438 6.510894,-0.312826 2.16782,-0.133276 4.333282,-0.293857 6.497027,-0.475357 2.163745,-0.18151 4.325783,-0.384191 6.486286,-0.601769 4.321027,-0.435186 8.636218,-0.929979 12.949244,-1.436622 4.313015,-0.506652 8.62376,-1.024881 12.935394,-1.506067 3.94361,-0.357292 7.88995,-0.678689 11.83839,-0.97149 3.94841,-0.292802 7.89907,-0.557211 11.85123,-0.800064 7.9043,-0.485704 15.81461,-0.88598 23.72749,-1.259275 7.91287,-0.373305 15.82793,-0.719377 23.7408,-1.096683 3.95645,-0.188679 4.93666,0.09809 8.89151,-0.113384 3.95484,-0.211475 4.34382,-1.146389 8.296,-1.395314 2.52699,-0.105443 5.90467,-0.833634 8.44555,-0.947677 2.54085,-0.28282 7.54175,0.03879 10.083,-0.03249 1.63631,-0.0459 7.56042,0.117151 13.20287,-0.408917 2.38149,-0.222025 6.48718,-0.169751 9.28155,-0.139287 -2.89892,-0.795769 4.73518,-2.781285 -0.57379,-2.662094 -1.85036,0.04153 -11.91916,-0.485247 -17.84168,-1.134772 -4.94592,-0.542416 -9.6894,-2.604903 -14.74325,-2.303288 -4.22673,0.252265 -8.45434,-0.475063 -12.68239,-0.254407 -4.22805,0.220644 -5.48013,-0.06113 -9.7086,0.114175 -4.22848,0.175336 -8.45738,0.324372 -12.68534,0.44069 -4.22796,0.116308 -8.45527,0.199828 -12.68183,0.243421 -4.22655,0.04356 -8.4521,0.04731 -12.67631,0.004 -4.22423,-0.04286 -8.44727,-0.132444 -12.66824,-0.275418 -12.13247,0.08794 -24.271184,0.162815 -36.410542,0.330972 -6.069687,0.08408 -12.139277,0.191298 -18.208537,0.335562 -6.069259,0.144264 -12.137943,0.32557 -18.205369,0.556764 -11.027687,0.702339 -22.081795,1.271735 -33.120897,1.978603 z"
       clip-path="none" />
    <path
       sodipodi:nodetypes="scccccccccss"
       d="m 18.230244,40.016469 c 4.6302,-0.04473 9.250346,0.606469 13.880544,0.273413 2.201221,0.02084 4.409318,0.03806 6.596789,-0.202565 1.113009,0.02439 3.112913,0.276099 3.049849,1.722044 -2.020327,0.768254 -3.980348,1.69852 -5.961237,2.572729 -1.905336,-0.07949 -3.69428,0.86929 -5.60709,0.722523 -5.977251,0.21051 -11.946183,0.626327 -17.906282,1.134289 -4.1563757,0.254515 -8.6224055,0.285975 -12.78454803,0.282456 V 40.359687 C 4.3262721,40.139456 9.4638516,40.19779 14.294492,40.046616 c 1.311627,-0.02082 2.625055,-0.03433 3.935782,-0.03014 z"
       style="fill:#668000;fill-opacity:0.502024;stroke-width:0.0482048"
       clip-path="none"
       id="rect167-4" />
    <path
       d="M 24.98871,-0.68264566 25.286113,9.7615203 c 0,0 -0.636358,24.0781307 1.175566,31.7900617 1.878606,7.995782 -0.588025,37.353072 -0.588025,37.353072 l 39.381692,-1.192312 c 0,0 -2.351139,-19.669928 -3.526699,-30.597749 C 60.553078,36.186774 54.675282,18.702394 52.515934,9.1892108 52.036568,7.0773465 51.59243,3.171405 51.211525,-0.68264566 Z"
       style="fill:#6f5236;fill-opacity:1;stroke:none;stroke-width:0.247008px;stroke-linecap:butt;stroke-linejoin:miter;stroke-opacity:1"
       clip-path="none"
       id="path1050" />
    <path
       sodipodi:nodetypes="ccsscscscscsscsccscscsssccccc"
       d="m 242.30754,79.502932 c -1.983,0.210732 -6.25767,1.362396 -7.7412,1.324528 -3.53843,-0.09068 -5.086,0.684459 -8.61549,0.449538 -3.52949,-0.234943 -5.56888,0.45402 -9.09695,0.189824 -3.52808,-0.264187 -7.0575,-0.514215 -10.59171,-0.69272 -1.55908,0.101139 -3.11658,0.155752 -4.67368,0.175188 -1.55711,0.0194 -3.11322,0.0038 -4.66885,-0.03542 -3.11123,-0.07768 -6.22024,-0.248411 -9.32848,-0.418843 -3.10823,-0.170431 -6.2159,-0.341109 -9.32508,-0.416955 -1.55459,-0.03787 -3.10942,-0.05198 -4.66498,-0.03117 -1.55556,0.02081 -3.11181,0.07688 -4.66883,0.179909 -2.36431,-0.161412 -4.72968,-0.298371 -7.09602,-0.414121 -2.36634,-0.11574 -4.73374,-0.209949 -7.10184,-0.285683 -4.7362,-0.151463 -9.4757,-0.228729 -14.21721,-0.254044 -4.74151,-0.02528 -9.48525,10e-4 -14.22982,0.05666 -4.74455,0.05565 -9.48984,0.140449 -14.23515,0.23185 -4.78986,-0.159689 -9.58588,-0.249396 -14.383842,-0.320619 -4.797983,-0.07118 -9.597665,-0.123949 -14.395474,-0.208241 -4.797822,-0.08428 -9.593502,-0.20059 -14.382877,-0.399482 -2.394683,-0.09941 -4.787826,-0.219303 -7.178846,-0.36643 -2.391023,-0.147126 -4.780415,-0.321351 -7.166738,-0.528866 -2.912278,-0.455232 -5.82463,-0.871084 -8.741907,-1.242836 -2.917277,-0.371753 -5.839015,-0.699046 -8.768547,-0.977458 -2.929544,-0.278412 -5.867458,-0.507601 -8.8165,-0.682805 -2.949043,-0.175201 -5.90947,0.186797 -8.885281,0.124663 -1.557271,-0.334145 -18.2728276,4.689118 -19.83396903,4.364099 V 104.46637 H 242.30754 Z"
       style="fill:#7f9429;fill-opacity:1;stroke-width:0.288649"
       clip-path="none"
       id="rect163" />
    <path
       style="fill:#8c982b;fill-opacity:1;stroke:none;stroke-width:0.264583px;stroke-linecap:butt;stroke-linejoin:miter;stroke-opacity:1"
       d="m 248.07254,188.60428 c 1.17131,-0.13367 2.47596,0.15797 3.51391,-0.40101 0.37411,-0.20148 3.75675,-6.56386 5.36171,-8.00283 0.707,-0.63385 1.65504,-1.48385 2.18042,-1.95489 0.16028,-0.14371 1.65143,-0.35149 1.57893,-0.43235 -0.61171,-0.68229 -2.56259,0.24902 -2.01127,-1.14658 0.181,-0.45819 0.65658,-0.9937 0.85993,-1.50846 0.48799,-1.23524 1.91323,-1.96521 2.984,-2.42952 0.16028,-0.0695 0.64936,0.15524 0.77537,0.0423 0.20549,-0.18426 0.5671,-1.0199 0.34302,-1.53665 -0.30815,-0.71059 -3.80188,0.96891 -4.42197,0.2773 -0.71393,-0.7963 4.48325,-1.40102 4.59111,-3.37878 0.009,-0.17231 0.14336,-0.38844 0.0282,-0.51692 -0.14787,-0.16491 -2.56181,-0.23205 -2.84304,-0.15504 -0.97289,0.2664 -1.74625,0.90249 -2.65505,1.15133 -0.0771,0.0211 -0.33435,0.4496 -0.53101,0.23027 -0.13088,-0.146 0.0342,-1.84017 0.11276,-2.06766 0.39774,-1.15074 2.6151,-2.24992 3.01217,-2.94644 0.56601,-0.99282 0.0953,-2.22401 0.44169,-3.34584 0.01,-0.0304 0.5858,-1.13175 0.32893,-1.27819 -1.37397,-0.78328 -3.03352,2.01648 -3.51499,2.65979 -0.63476,0.84816 -1.77451,1.39046 -2.45295,2.19926 -0.87395,1.04184 -1.307,2.64008 -1.76216,3.79229 -0.17007,0.43046 0.1427,1.15206 -0.0846,1.55074 -0.1312,0.23012 -0.61126,0.42197 -0.80357,0.47463 -0.85982,0.23544 -0.13465,-2.2087 -0.39006,-2.3543 -0.37478,-0.21366 -0.86152,-0.047 -1.29229,-0.0705 -0.1723,-0.009 -0.38843,-0.14339 -0.51691,-0.0282 -0.7617,0.68292 1.29575,5.72123 0.42301,6.5037 -0.0714,0.064 -3.49552,-2.4506 -3.56203,-1.23115 -0.0561,1.02862 0.0101,2.25147 0.60623,3.14377 0.13558,0.20291 0.67044,0.38219 0.48874,0.5451 -1.26729,1.1362 -5.30685,-0.66442 -4.98116,1.02448 0.23148,1.20037 1.9128,2.3743 2.40133,3.50089 0.31924,0.73618 -0.2211,1.18151 -0.60148,1.52255 -2.11811,1.89904 -1.1132,8.57119 2.39306,6.16689 z"
       id="path1131"
       clip-path="url(#clipPath1583)"
       transform="matrix(1.0666725,0,0,1.0154382,-88.778281,-111.57503)" />
    <path
       d="m 145.39724,-0.68264566 c 0.0384,2.30151426 0.029,4.35872816 -0.0726,5.73347776 -0.79004,10.6751589 -4.1104,30.4571219 -3.74079,42.6091549 0.3696,12.152023 0.80454,34.045297 0.80454,34.045297 13.34438,1.351935 22.3511,1.242249 35.42681,0.680917 0,0 -3.21503,-34.872278 -2.48869,-43.850103 0.70058,-8.659088 -3.27144,-35.1611112 -3.27144,-35.1611112 l -0.40833,-4.05763246 z"
       style="fill:#654b31;fill-opacity:1;stroke:none;stroke-width:0.258028px;stroke-linecap:butt;stroke-linejoin:miter;stroke-opacity:1"
       clip-path="none"
       id="path1052" />
    <path
       id="path211"
       style="fill:#89a02c;stroke-width:0.264583"
       d="m 251.10797,116.38805 c -0.0881,0.0198 -0.1779,0.0336 -0.25735,0.0837 -0.10127,0.0639 0.0753,0.0602 0.14056,0.0191 0.0441,-0.0278 0.0743,-0.0729 0.11679,-0.10283 z"
       clip-path="url(#clipPath1575)"
       transform="matrix(1.0666725,0,0,1.0154382,-88.778281,-111.57503)" />
    <path
       id="path1064"
       style="fill:#92ac2a;fill-opacity:1;stroke-width:0.295719"
       d="m 39.875657,57.896612 c -1.572051,1.839863 -0.659214,3.679725 -2.231265,5.519577 -2.676441,-1.489404 -2.757743,-4.590826 -5.434195,-6.080231 -3.545054,1.797804 -1.678388,5.733296 -5.22343,7.531109 -1.80784,-2.323485 0.266251,-8.765628 -3.056914,-9.533106 -2.380364,5.337651 -14.4192557,14.549005 -14.4192557,14.549005 -3.4178434,3.192995 -5.9667192,8.489642 0.114206,11.770503 7.8680257,3.086983 -1.7635576,3.103493 6.6643927,3.311232 13.182011,-2.517211 -2.782973,0.571722 10.407798,0.732841 6.534371,0.73073 9.76288,2.589834 16.33771,2.617058 5.752395,0.668179 17.068434,-0.769011 22.857842,-1.442927 7.433939,1.075065 13.885815,3.122523 21.471424,3.039196 2.035584,-6.879177 -7.24005,-10.103356 -12.595397,-7.636277 -1.893685,-1.277909 2.090401,-6.123976 -2.676548,-4.555693 -4.170679,2.325851 -8.436888,-0.260216 -7.222023,-3.97936 -3.085276,-0.852856 -8.444643,7.519563 -8.812507,2.472806 1.615199,-2.102709 2.461358,-6.377927 -1.746122,-4.526753 -5.768063,1.063997 2.150007,-8.365799 -4.535651,-4.452179 -3.393597,0.37617 1.235271,-5.530979 -3.698911,-5.19888 -1.021306,-0.379124 -6.201154,-4.137921 -6.201154,-4.137921 z"
       sodipodi:nodetypes="cccccccccccccccccccc"
       clip-path="none" />
    <path
       d="m 154.26315,-0.68264566 c 1.66363,0.28494962 3.30965,0.59896144 4.76813,1.32972105 -0.0505,0.92525361 -4.40753,2.80097431 -0.98423,2.25570931 2.32411,-0.355916 4.78269,-0.7685906 6.88434,-1.3608864 0.18223,1.6276604 -4.91765,5.5380771 -0.50568,4.0085234 1.30788,-0.1929966 5.51795,-1.5533815 3.93987,0.4278152 1.52419,0.1412943 6.63989,-3.1237832 3.56351,-0.1104953 -1.18864,1.4249373 -4.12139,2.6909833 -4.32543,4.1997654 5.5159,-0.2363055 10.24859,-3.6458177 15.81177,-3.4366869 3.70548,0.4937436 -4.495,4.0981619 0.57689,3.3101366 3.09336,-0.3746444 6.23142,-0.6798991 9.39192,-0.5491711 1.82248,0.2526712 4.8831,-0.5202336 5.97713,0.4750354 -0.93438,0.307423 -6.66874,3.047325 -3.05541,2.042746 4.60338,0.425757 9.26325,0.151346 13.85589,0.144494 2.053,2.646771 12.96254,-1.988 16.03942,-0.852324 2.27325,0.06618 8.9886,2.345673 16.10627,2.447895 V -0.68264566 Z"
       style="fill:#809629;fill-opacity:1;stroke-width:0.288635"
       clip-path="none"
       id="path1062" />
    <path
       d="M -0.50173823,-0.68264566 V 13.659548 C 1.8765076,13.567298 4.6930944,13.201922 6.9425423,12.377991 1.5390066,9.5405268 15.956992,9.8530825 14.883786,9.1816558 14.396665,7.047067 20.964718,8.0631939 18.645402,6.7295103 c 2.357014,-2.3375168 5.840861,-3.8171475 9.26987,-4.5151962 0.616066,-0.8289525 2.052544,-2.1151174 3.488432,-2.89695976 z"
       style="fill:#809629;fill-opacity:1;stroke-width:0.288635"
       clip-path="none"
       id="path972" />
    <path
       style="fill:#93aa32;fill-opacity:1;stroke:none;stroke-width:0.264583px;stroke-linecap:butt;stroke-linejoin:miter;stroke-opacity:1"
       d="m 227.96254,190.34191 c -2.46,1.05282 -3.5182,1.37365 -4.84161,-0.61147 -0.74106,-1.11159 -0.3139,-2.54157 -1.03537,-3.62377 -0.68135,-1.02204 -1.03536,-2.74274 -1.03536,-2.32957 0,0.17256 0.36334,-0.0772 0.51768,0 0.27825,0.13912 0.52765,0.33103 0.77652,0.51768 0.42531,0.31898 1.7011,1.60844 2.32957,1.2942 0.59994,-0.29997 0.82016,-3.14972 1.03537,-3.36493 0.40568,-0.40568 1.95714,0.66294 2.07072,0.77652 0.21571,0.21571 1.07851,-0.2157 1.29421,0 0.061,0.061 -0.0772,0.22026 0,0.25885 0.23714,0.11857 2.93063,0.17545 3.10609,0 0.23045,-0.23045 -0.1343,-1.23194 0.77652,-0.77653 0.79316,0.39658 1.26305,1.15328 1.81189,1.81189 0.99494,1.19393 2.91238,2.35128 4.4003,2.84725 0.48358,0.16119 0.72938,0.84709 1.2942,1.03536 0.80229,0.26744 0.33377,-1.71992 1.03537,-2.07072 0.77663,-0.38832 1.81156,1.03569 2.32957,0.51768 0.54617,-0.54617 0.26718,-1.82024 0.77652,-2.32957 0.21577,-0.21578 0.88951,0.81658 1.03536,1.03536 0.58565,0.87847 1.47157,1.12405 2.32957,1.55305 0.6185,0.30925 3.56091,0.14514 4.14146,0 0.42681,-0.1067 1.2942,-0.69879 1.2942,-0.25884 0,0.35663 -1.28956,2.07537 -1.03536,2.32957 0.98562,0.98562 3.43703,1.83592 4.91796,2.32956 0.24493,0.0816 1.63198,0.0789 1.8119,0.25885 0.20095,0.20094 0.3198,0.63957 0.51768,1.03536 0.60508,1.21014 -2.67787,1.03536 -2.84723,1.03536 -1.54231,0 -3.15195,-0.65856 -4.65915,-1.03536 -0.46618,-0.11654 -4.72432,-0.25884 -5.43566,-0.25884 -1.25354,0 -4.89177,0.78963 -5.95335,0.25884 -1.55083,-0.77542 -5.34519,0.0452 -6.47102,-0.51768 -1.95545,-0.97772 -4.27666,-0.95098 -6.28855,-1.7181 z"
       id="path1127"
       clip-path="url(#clipPath1563)"
       transform="matrix(1.1128846,0,0,1.0154382,-99.291206,-110.60796)" />
    <path
       sodipodi:nodetypes="ccsssccsscssscssccsssscscccccc"
       d="m 242.20728,97.925901 -10.72008,0.367846 c 0,0 -1.15912,-0.0275 -2.49984,-0.08215 -0.67036,-0.02732 -1.38604,-0.06141 -2.02466,-0.10247 -0.63864,-0.04103 -1.20069,-0.08882 -1.56306,-0.143552 -0.36235,-0.05473 -0.83426,-0.0752 -1.40951,-0.07694 -0.57525,-0.0018 -1.2543,0.01544 -2.03339,0.03591 -0.77904,0.02056 -1.65774,0.04423 -2.63159,0.0562 -0.97383,0.01197 -2.04263,0.01225 -3.20215,-0.01508 -1.15954,-0.02732 -3.00701,-0.0064 -5.3397,0.04112 -2.33267,0.04788 -5.15017,0.122892 -8.24833,0.204939 -3.09816,0.08206 -6.47745,0.170801 -9.93347,0.246014 -3.45599,0.0752 -6.98842,0.136973 -10.39458,0.164331 -3.40616,0.02732 -6.07,0.02714 -8.14903,0.01179 -2.07902,-0.01544 -3.57374,-0.04614 -4.64269,-0.08032 -1.06895,-0.03418 -1.71168,-0.07201 -2.08763,-0.101054 -0.37595,-0.02906 -0.48534,-0.04962 -0.48534,-0.04962 v -0.546816 c 0,0 -75.950302,-0.218628 -80.588483,-0.218628 -2.319103,0 -10.362699,0.08178 -18.986815,0.163856 -8.624126,0.08206 -17.828828,0.164323 -22.467011,0.164323 -2.319095,0 -5.525758,-0.02741 -9.276167,-0.06844 -3.750404,-0.04103 -8.044193,-0.09593 -12.53743,-0.150625 -4.49324,-0.05474 -9.18623,-0.109132 -13.7338224,-0.15016 -3.5855468,-0.03235 -6.51762,-0.0456 -9.75423263,-0.05428 v 3.842775 0 9.28397 H 242.20728 Z"
       style="fill:#5c3610;fill-opacity:1;stroke:none;stroke-width:0.197849;stroke-opacity:1"
       id="rect1653" />
  </g>
</svg>
