<?xml version="1.0" encoding="utf-8"?>
<!-- Generator: Adobe Illustrator 15.0.2, SVG Export Plug-In . SVG Version: 6.00 Build 0)  -->
<!DOCTYPE svg PUBLIC "-//W3C//DTD SVG 1.1//EN" "http://www.w3.org/Graphics/SVG/1.1/DTD/svg11.dtd">
<svg version="1.1" id="Layer_1" xmlns="http://www.w3.org/2000/svg" xmlns:xlink="http://www.w3.org/1999/xlink" x="0px" y="0px"
	 width="516.854px" height="84.27px" viewBox="0 0 516.854 84.27" enable-background="new 0 0 516.854 84.27" xml:space="preserve">
<g>
	<g>
		<path fill="#1A64AE" d="M26.157,23.918h3.44v10.264c1.487-1.084,3.075-1.626,4.763-1.626c2.205,0,4.007,0.832,5.406,2.495
			c1.399,1.664,2.098,3.8,2.098,6.408c0,2.797-0.835,5.025-2.504,6.682c-1.67,1.658-3.903,2.486-6.701,2.486
			c-1.122,0-2.303-0.12-3.544-0.359c-1.242-0.239-2.228-0.541-2.958-0.907V23.918z M29.598,37.472v9.413
			c1.172,0.353,2.375,0.529,3.61,0.529c1.524,0,2.769-0.542,3.733-1.626c0.964-1.083,1.446-2.476,1.446-4.177
			c0-1.727-0.451-3.131-1.352-4.215s-2.076-1.626-3.525-1.626C32.225,35.77,30.921,36.337,29.598,37.472z"/>
		<path fill="#1A64AE" d="M47.442,25.62c0.567,0,1.052,0.195,1.456,0.586c0.403,0.391,0.605,0.87,0.605,1.437
			c0,0.555-0.202,1.034-0.605,1.437c-0.404,0.403-0.889,0.605-1.456,0.605c-0.529,0-0.996-0.205-1.399-0.614
			s-0.605-0.885-0.605-1.427c0-0.529,0.202-0.999,0.605-1.408C46.446,25.825,46.913,25.62,47.442,25.62z M45.741,32.935h3.44v17.39
			h-3.44V32.935z"/>
		<path fill="#1A64AE" d="M62.469,32.897c2.646,0,4.845,0.854,6.597,2.562c1.751,1.708,2.627,3.853,2.627,6.436
			c0,2.508-0.888,4.591-2.665,6.247c-1.777,1.658-4.014,2.486-6.71,2.486c-2.609,0-4.789-0.842-6.541-2.523
			c-1.751-1.683-2.627-3.783-2.627-6.304c0-2.545,0.885-4.666,2.656-6.361S59.797,32.897,62.469,32.897z M62.28,35.997
			c-1.651,0-3.005,0.542-4.064,1.625c-1.059,1.084-1.588,2.464-1.588,4.14c0,1.664,0.542,3.022,1.626,4.074
			c1.083,1.052,2.476,1.578,4.177,1.578c1.688,0,3.072-0.532,4.149-1.597c1.078-1.065,1.616-2.429,1.616-4.093
			c0-1.651-0.561-3.018-1.682-4.102C65.393,36.539,63.981,35.997,62.28,35.997z"/>
		<path fill="#1A64AE" d="M74.662,49.077v-3.705c0.97,0.682,1.962,1.232,2.977,1.654c1.014,0.423,1.868,0.634,2.562,0.634
			c0.718,0,1.335-0.177,1.852-0.529s0.775-0.775,0.775-1.267c0-0.504-0.167-0.923-0.501-1.258c-0.334-0.333-1.056-0.814-2.165-1.445
			c-2.218-1.235-3.67-2.29-4.357-3.166c-0.687-0.876-1.03-1.831-1.03-2.864c0-1.336,0.52-2.426,1.56-3.271
			c1.04-0.844,2.378-1.266,4.017-1.266c1.701,0,3.447,0.479,5.236,1.437v3.402c-2.042-1.235-3.711-1.853-5.009-1.853
			c-0.668,0-1.207,0.142-1.616,0.426c-0.41,0.284-0.614,0.659-0.614,1.125c0,0.404,0.186,0.789,0.556,1.155
			c0.371,0.366,1.023,0.807,1.956,1.323l1.229,0.699c2.899,1.638,4.349,3.452,4.349,5.443c0,1.423-0.558,2.592-1.673,3.505
			s-2.549,1.37-4.3,1.37c-1.034,0-1.954-0.111-2.76-0.331C76.898,50.077,75.884,49.67,74.662,49.077z"/>
		<path fill="#1A64AE" d="M101.083,32.935h3.86L92.622,59.19h-3.84l5.903-12.6l-6.716-13.656h3.92l4.696,9.823L101.083,32.935z"/>
		<path fill="#1A64AE" d="M106.512,49.077v-3.705c0.97,0.682,1.962,1.232,2.977,1.654c1.014,0.423,1.868,0.634,2.562,0.634
			c0.718,0,1.335-0.177,1.852-0.529s0.775-0.775,0.775-1.267c0-0.504-0.167-0.923-0.501-1.258c-0.334-0.333-1.056-0.814-2.165-1.445
			c-2.218-1.235-3.67-2.29-4.357-3.166c-0.687-0.876-1.03-1.831-1.03-2.864c0-1.336,0.52-2.426,1.56-3.271
			c1.04-0.844,2.378-1.266,4.017-1.266c1.701,0,3.447,0.479,5.236,1.437v3.402c-2.042-1.235-3.711-1.853-5.009-1.853
			c-0.668,0-1.207,0.142-1.616,0.426c-0.41,0.284-0.614,0.659-0.614,1.125c0,0.404,0.186,0.789,0.556,1.155
			c0.371,0.366,1.023,0.807,1.956,1.323l1.229,0.699c2.899,1.638,4.349,3.452,4.349,5.443c0,1.423-0.558,2.592-1.673,3.505
			s-2.549,1.37-4.3,1.37c-1.034,0-1.954-0.111-2.76-0.331C108.749,50.077,107.734,49.67,106.512,49.077z"/>
		<path fill="#1A64AE" d="M119.819,35.695l6.465-6.352v3.592h5.5v3.1h-5.5v8.511c0,1.988,0.825,2.982,2.476,2.982
			c1.235,0,2.539-0.41,3.913-1.229v3.214c-1.323,0.743-2.766,1.115-4.329,1.115c-1.575,0-2.886-0.46-3.932-1.381
			c-0.328-0.276-0.599-0.588-0.813-0.936c-0.214-0.346-0.394-0.8-0.539-1.36s-0.217-1.628-0.217-3.204v-7.712h-3.024V35.695z"/>
		<path fill="#1A64AE" d="M149.969,41.933h-12.229c0.088,1.663,0.646,2.986,1.673,3.969c1.027,0.983,2.353,1.475,3.979,1.475
			c2.268,0,4.36-0.705,6.275-2.117v3.365c-1.059,0.706-2.107,1.209-3.147,1.512c-1.04,0.303-2.259,0.454-3.657,0.454
			c-1.916,0-3.466-0.397-4.65-1.19c-1.185-0.795-2.133-1.862-2.845-3.205c-0.712-1.342-1.068-2.895-1.068-4.659
			c0-2.646,0.75-4.798,2.25-6.456c1.5-1.657,3.446-2.485,5.841-2.485c2.306,0,4.146,0.807,5.52,2.419
			c1.374,1.613,2.06,3.774,2.06,6.483V41.933z M137.814,39.872h8.752c-0.088-1.374-0.498-2.432-1.229-3.176
			c-0.731-0.743-1.714-1.115-2.949-1.115c-1.235,0-2.247,0.372-3.034,1.115C138.567,37.44,138.054,38.499,137.814,39.872z"/>
		<path fill="#1A64AE" d="M167.945,37.698v12.627h-3.459v-9.678c0-1.928-0.259-3.273-0.775-4.036
			c-0.517-0.762-1.418-1.144-2.703-1.144c-0.718,0-1.377,0.164-1.976,0.492s-1.282,0.907-2.051,1.739v12.627h-3.44v-17.39h3.44
			v2.287c1.751-1.751,3.465-2.627,5.142-2.627c2.205,0,3.913,1.046,5.123,3.138c1.84-2.117,3.762-3.176,5.765-3.176
			c1.688,0,3.078,0.618,4.168,1.853c1.09,1.235,1.635,3.119,1.635,5.652v10.264h-3.44V40.023c0-1.449-0.296-2.558-0.888-3.327
			c-0.593-0.769-1.443-1.153-2.552-1.153C170.51,35.543,169.18,36.262,167.945,37.698z"/>
		<path fill="#1A64AE" d="M182.689,49.077v-3.705c0.97,0.682,1.962,1.232,2.977,1.654c1.014,0.423,1.868,0.634,2.562,0.634
			c0.718,0,1.335-0.177,1.852-0.529s0.775-0.775,0.775-1.267c0-0.504-0.167-0.923-0.501-1.258c-0.334-0.333-1.056-0.814-2.165-1.445
			c-2.218-1.235-3.67-2.29-4.357-3.166c-0.687-0.876-1.03-1.831-1.03-2.864c0-1.336,0.52-2.426,1.56-3.271
			c1.04-0.844,2.378-1.266,4.017-1.266c1.701,0,3.447,0.479,5.236,1.437v3.402c-2.042-1.235-3.711-1.853-5.009-1.853
			c-0.668,0-1.207,0.142-1.616,0.426c-0.41,0.284-0.614,0.659-0.614,1.125c0,0.404,0.186,0.789,0.556,1.155
			c0.371,0.366,1.023,0.807,1.956,1.323l1.229,0.699c2.899,1.638,4.349,3.452,4.349,5.443c0,1.423-0.558,2.592-1.673,3.505
			s-2.549,1.37-4.3,1.37c-1.034,0-1.954-0.111-2.76-0.331C184.926,50.077,183.912,49.67,182.689,49.077z"/>
	</g>
</g>
<g>
	<g>
		<path fill="#2AAAE2" d="M219.905,49.403c-0.995,0.373-1.915,0.674-2.76,0.902s-1.858,0.344-3.043,0.344
			c-1.122,0-1.903-0.189-2.345-0.568c-0.44-0.38-0.756-0.841-0.944-1.383c-0.731,0.566-1.544,1.033-2.438,1.4
			s-2.066,0.551-3.516,0.551c-1.399,0-2.53-0.232-3.394-0.695c-0.863-0.464-1.468-1.048-1.814-1.752
			c-0.347-0.705-0.521-1.431-0.521-2.178c0-1.132,0.3-2.068,0.898-2.809s1.402-1.346,2.41-1.815s2.344-0.958,4.008-1.463
			c0.945-0.289,1.66-0.509,2.145-0.659c0.485-0.15,0.848-0.268,1.088-0.353c0.238-0.084,0.49-0.192,0.756-0.325
			c0-0.891-0.189-1.589-0.567-2.095s-1.197-0.759-2.458-0.759c-1.486,0-2.866,0.313-4.139,0.939
			c-1.273,0.626-2.439,1.433-3.497,2.42V34.12c0.844-0.578,1.758-1.051,2.741-1.418c0.982-0.368,2.01-0.642,3.08-0.822
			c1.071-0.181,2.155-0.271,3.252-0.271c2.785,0,4.879,0.515,6.285,1.545c1.404,1.029,2.107,2.448,2.107,4.254v7.099
			c0,0.675,0.066,1.178,0.198,1.509s0.375,0.497,0.728,0.497c0.429,0,1.008-0.175,1.739-0.523V49.403z M210.436,45.88v-4.354
			c-1.613,0.626-2.791,1.189-3.535,1.689c-0.744,0.5-1.115,1.178-1.115,2.033c0,0.614,0.186,1.083,0.558,1.409
			c0.372,0.324,0.804,0.487,1.295,0.487c0.466,0,0.929-0.123,1.39-0.37C209.486,46.528,209.956,46.229,210.436,45.88z"/>
		<path fill="#2AAAE2" d="M243.137,50.324h-6.805v-9.539v-0.379c0-1.012-0.174-1.894-0.52-2.646
			c-0.348-0.752-1.105-1.129-2.278-1.129c-0.555,0-1.042,0.099-1.465,0.298s-0.8,0.455-1.134,0.768
			c-0.334,0.313-0.615,0.614-0.842,0.903s-0.46,0.596-0.699,0.921v10.803h-6.805V31.934h6.805v2.638
			c1.071-1.096,2.146-1.864,3.223-2.303c1.078-0.439,2.278-0.66,3.602-0.66c4.611,0,6.918,2.638,6.918,7.913V50.324z"/>
		<path fill="#2AAAE2" d="M267.181,49.403c-0.995,0.373-1.915,0.674-2.76,0.902s-1.858,0.344-3.043,0.344
			c-1.122,0-1.903-0.189-2.345-0.568c-0.44-0.38-0.756-0.841-0.944-1.383c-0.731,0.566-1.544,1.033-2.438,1.4
			s-2.066,0.551-3.516,0.551c-1.399,0-2.53-0.232-3.394-0.695c-0.863-0.464-1.468-1.048-1.814-1.752
			c-0.347-0.705-0.521-1.431-0.521-2.178c0-1.132,0.3-2.068,0.898-2.809s1.402-1.346,2.41-1.815s2.344-0.958,4.008-1.463
			c0.945-0.289,1.66-0.509,2.145-0.659c0.485-0.15,0.848-0.268,1.088-0.353c0.238-0.084,0.49-0.192,0.756-0.325
			c0-0.891-0.189-1.589-0.567-2.095s-1.197-0.759-2.458-0.759c-1.486,0-2.866,0.313-4.139,0.939
			c-1.273,0.626-2.439,1.433-3.497,2.42V34.12c0.844-0.578,1.758-1.051,2.741-1.418c0.982-0.368,2.01-0.642,3.08-0.822
			c1.071-0.181,2.155-0.271,3.252-0.271c2.785,0,4.879,0.515,6.285,1.545c1.404,1.029,2.107,2.448,2.107,4.254v7.099
			c0,0.675,0.066,1.178,0.198,1.509s0.375,0.497,0.728,0.497c0.429,0,1.008-0.175,1.739-0.523V49.403z M257.711,45.88v-4.354
			c-1.613,0.626-2.791,1.189-3.535,1.689c-0.744,0.5-1.115,1.178-1.115,2.033c0,0.614,0.186,1.083,0.558,1.409
			c0.372,0.324,0.804,0.487,1.295,0.487c0.466,0,0.929-0.123,1.39-0.37C256.762,46.528,257.231,46.229,257.711,45.88z"/>
		<path fill="#2AAAE2" d="M276.48,50.324h-6.823V25.286h6.823V50.324z"/>
		<path fill="#2AAAE2" d="M301.791,31.934l-17.672,36.538l-5.302-4l8.306-16.551l-7.618-15.987h7.315l3.912,9.141l4.443-9.141
			H301.791z"/>
		<path fill="#2AAAE2" d="M318.917,49.259c-0.706,0.324-1.679,0.639-2.921,0.939c-1.24,0.301-2.429,0.451-3.562,0.451
			c-4.902,0-7.354-2.288-7.354-6.865V36.45h-3.081v-1.138l9.13-8.888h0.775v5.51h6.502v4.517h-6.502v5.889
			c0,0.687,0.044,1.241,0.133,1.662c0.088,0.422,0.336,0.774,0.746,1.057c0.409,0.283,1.03,0.426,1.861,0.426
			c1.084,0,2.508-0.434,4.272-1.301V49.259z"/>
		<path fill="#2AAAE2" d="M329.068,50.324h-6.824V31.934h6.824V50.324z M328.52,27.688c0,0.759-0.283,1.403-0.851,1.933
			c-0.567,0.53-1.241,0.795-2.022,0.795c-0.529,0-1.012-0.12-1.445-0.361c-0.436-0.241-0.779-0.569-1.031-0.984
			s-0.378-0.876-0.378-1.382c0-0.747,0.277-1.391,0.832-1.933c0.554-0.542,1.229-0.813,2.022-0.813c0.781,0,1.455,0.271,2.022,0.813
			S328.52,26.942,328.52,27.688z"/>
		<path fill="#2AAAE2" d="M350.238,49.476c-0.566,0.205-1.165,0.395-1.795,0.568c-0.631,0.175-1.34,0.319-2.127,0.434
			c-0.787,0.115-1.647,0.172-2.58,0.172c-2.104,0-3.885-0.34-5.34-1.021s-2.577-1.536-3.365-2.565
			c-0.787-1.029-1.332-2.08-1.635-3.152c-0.303-1.072-0.453-2.017-0.453-2.836c0-0.819,0.154-1.764,0.463-2.836
			c0.309-1.072,0.848-2.107,1.616-3.107s1.881-1.836,3.336-2.511c1.456-0.674,3.248-1.012,5.378-1.012
			c1.424,0,2.583,0.097,3.479,0.289c0.895,0.193,1.802,0.452,2.722,0.777v5.112c-2.218-0.674-3.95-1.011-5.198-1.011
			c-1.21,0-2.284,0.349-3.223,1.047c-0.939,0.699-1.408,1.783-1.408,3.252c0,0.976,0.232,1.797,0.699,2.465
			c0.466,0.669,1.059,1.16,1.777,1.473c0.718,0.313,1.436,0.471,2.154,0.471c0.681,0,1.455-0.098,2.325-0.289
			c0.869-0.193,1.928-0.471,3.175-0.832V49.476z"/>
		<path fill="#2AAAE2" d="M368.594,44.959c0,1.687-0.646,3.056-1.938,4.11c-1.293,1.053-3.211,1.58-5.756,1.58
			c-1.425,0-2.691-0.123-3.8-0.37s-2.319-0.599-3.63-1.058v-4.624c1.146,0.626,2.143,1.103,2.987,1.427
			c0.844,0.325,1.771,0.488,2.778,0.488c1.701,0,2.553-0.445,2.553-1.337c0-0.302-0.123-0.569-0.369-0.804
			c-0.246-0.235-0.674-0.5-1.285-0.795c-0.611-0.295-1.428-0.647-2.448-1.057c-1.261-0.53-2.331-1.24-3.214-2.132
			c-0.882-0.891-1.322-1.981-1.322-3.27c0-0.916,0.293-1.794,0.879-2.638c0.586-0.843,1.471-1.533,2.655-2.068
			c1.185-0.536,2.614-0.804,4.291-0.804c0.403,0,0.917,0.027,1.54,0.082c0.625,0.054,1.412,0.196,2.363,0.424
			c0.951,0.229,1.855,0.554,2.713,0.976v4.498c-0.404-0.229-0.74-0.421-1.012-0.578c-0.271-0.157-0.633-0.332-1.087-0.524
			c-0.454-0.193-0.985-0.364-1.597-0.515c-0.611-0.15-1.238-0.226-1.881-0.226c-0.781,0-1.317,0.145-1.607,0.434
			c-0.289,0.289-0.435,0.578-0.435,0.867c0,0.301,0.151,0.581,0.454,0.84c0.303,0.259,0.977,0.581,2.022,0.966
			c1.513,0.554,2.722,1.124,3.629,1.708s1.554,1.226,1.938,1.924C368.4,43.183,368.594,44.007,368.594,44.959z"/>
	</g>
	<polygon fill="#2AAAE2" points="284.119,68.472 25.045,68.472 25.045,64.472 278.817,64.472 283.654,59.972 286.05,61.972 	"/>
</g>
<g>
	<rect x="375.045" y="18.472" fill="#1A64AE" width="14" height="13"/>
	<rect x="375.045" y="35.472" fill="#1A64AE" width="14" height="15"/>
	<rect x="393.045" y="18.472" fill="#2AAAE2" width="15" height="13"/>
	<rect x="393.045" y="35.472" fill="#1A64AE" width="15" height="15"/>
	<rect x="412.045" y="18.472" fill="#2AAAE2" width="14" height="13"/>
	<rect x="412.045" y="35.472" fill="#2AAAE2" width="14" height="15"/>
	<rect x="430.045" y="18.472" fill="#ACE1F7" width="13" height="13"/>
	<rect x="430.045" y="35.472" fill="#1A64AE" width="13" height="15"/>
	<rect x="447.045" y="18.472" fill="#1A64AE" width="14" height="13"/>
	<rect x="447.045" y="35.472" fill="#2AAAE2" width="14" height="15"/>
	<rect x="465.045" y="18.472" fill="#1A64AE" width="15" height="13"/>
	<rect x="465.045" y="35.472" fill="#1A64AE" width="15" height="15"/>
	<rect x="484.045" y="18.472" fill="#ACE1F7" width="14" height="13"/>
	<rect x="484.045" y="35.472" fill="#2AAAE2" width="14" height="15"/>
</g>
</svg>
