<?xml version="1.0" encoding="UTF-8" standalone="no"?>
<svg
   xmlns:dc="http://purl.org/dc/elements/1.1/"
   xmlns:cc="http://creativecommons.org/ns#"
   xmlns:rdf="http://www.w3.org/1999/02/22-rdf-syntax-ns#"
   xmlns:svg="http://www.w3.org/2000/svg"
   xmlns="http://www.w3.org/2000/svg"
   style="fill:none;stroke:#ffffff;stroke-width:2.3;stroke-linecap:round;stroke-linejoin:round"
   height="26"
   width="26"
   id="svg7159"
   version="1.1"
   viewBox="0 0 26 26">
  <metadata
     id="metadata7165">
    <rdf:RDF>
      <cc:Work
         rdf:about="">
        <dc:format>image/svg+xml</dc:format>
        <dc:type
           rdf:resource="http://purl.org/dc/dcmitype/StillImage" />
        <dc:title></dc:title>
      </cc:Work>
    </rdf:RDF>
  </metadata>
  <defs
     id="defs7163" />
  <g
     transform="matrix(0.7459,0,0,-0.7459,14.69,11.73)"
     id="g1912">
    <path
       id="path1914"
       style="fill:#666988;fill-opacity:1;fill-rule:evenodd;stroke:none"
       d="M 0,0 V 0.044 C -0.01,0.03 -0.021,0.014 -0.03,0 Z M 9.108,-11.87 H 4.603 v 7.186 c 0,1.808 -0.508,3.042 -2.148,3.042 -1.237,0 -1.983,-0.831 -2.314,-1.636 C 0.03,-3.563 0,-3.966 0,-4.369 v -7.501 h -4.657 c 0,0 0.06,12.557 0,13.814 H 0 v -1.9 c 0.599,0.911 1.666,2.22 4.064,2.22 2.968,0 5.044,-2.306 5.044,-6.432 z m -16.742,0 H -12.21 V 1.894 h 4.576 z M -10.15,7.969 c 1.378,0 2.234,-1 2.257,-2.313 0,-1.283 -0.879,-2.313 -2.287,-2.313 v 0 c -1.36,0 -2.24,1.03 -2.24,2.313 0,1.313 0.91,2.313 2.3,2.313 m 20.79,6.091 h -25.9 c -1.68,0 -3.04,-1.36 -3.04,-3.04 v -25.91 c 0,-1.68 1.36,-3.05 3.04,-3.05 h 25.9 c 1.69,0 3.06,1.37 3.06,3.05 v 25.91 c 0,1.68 -1.37,3.04 -3.06,3.04" />
  </g>
</svg>
